<svg id="visual" viewBox="0 0 960 540" width="960" height="540" xmlns="http://www.w3.org/2000/svg" xmlns:xlink="http://www.w3.org/1999/xlink" version="1.1"><rect x="0" y="0" width="960" height="540" fill="#001122"></rect><defs><linearGradient id="grad1_0" x1="43.8%" y1="0%" x2="100%" y2="100%"><stop offset="14.444444444444446%" stop-color="#fcaf3c" stop-opacity="1"></stop><stop offset="85.55555555555554%" stop-color="#fcaf3c" stop-opacity="1"></stop></linearGradient></defs><defs><linearGradient id="grad1_1" x1="43.8%" y1="0%" x2="100%" y2="100%"><stop offset="14.444444444444446%" stop-color="#fcaf3c" stop-opacity="1"></stop><stop offset="85.55555555555554%" stop-color="#f4844e" stop-opacity="1"></stop></linearGradient></defs><defs><linearGradient id="grad1_2" x1="43.8%" y1="0%" x2="100%" y2="100%"><stop offset="14.444444444444446%" stop-color="#da6160" stop-opacity="1"></stop><stop offset="85.55555555555554%" stop-color="#f4844e" stop-opacity="1"></stop></linearGradient></defs><defs><linearGradient id="grad1_3" x1="43.8%" y1="0%" x2="100%" y2="100%"><stop offset="14.444444444444446%" stop-color="#da6160" stop-opacity="1"></stop><stop offset="85.55555555555554%" stop-color="#b14a6a" stop-opacity="1"></stop></linearGradient></defs><defs><linearGradient id="grad1_4" x1="43.8%" y1="0%" x2="100%" y2="100%"><stop offset="14.444444444444446%" stop-color="#803c69" stop-opacity="1"></stop><stop offset="85.55555555555554%" stop-color="#b14a6a" stop-opacity="1"></stop></linearGradient></defs><defs><linearGradient id="grad1_5" x1="43.8%" y1="0%" x2="100%" y2="100%"><stop offset="14.444444444444446%" stop-color="#803c69" stop-opacity="1"></stop><stop offset="85.55555555555554%" stop-color="#4d315b" stop-opacity="1"></stop></linearGradient></defs><defs><linearGradient id="grad1_6" x1="43.8%" y1="0%" x2="100%" y2="100%"><stop offset="14.444444444444446%" stop-color="#212341" stop-opacity="1"></stop><stop offset="85.55555555555554%" stop-color="#4d315b" stop-opacity="1"></stop></linearGradient></defs><defs><linearGradient id="grad1_7" x1="43.8%" y1="0%" x2="100%" y2="100%"><stop offset="14.444444444444446%" stop-color="#212341" stop-opacity="1"></stop><stop offset="85.55555555555554%" stop-color="#001122" stop-opacity="1"></stop></linearGradient></defs><defs><linearGradient id="grad2_0" x1="0%" y1="0%" x2="56.3%" y2="100%"><stop offset="14.444444444444446%" stop-color="#fcaf3c" stop-opacity="1"></stop><stop offset="85.55555555555554%" stop-color="#fcaf3c" stop-opacity="1"></stop></linearGradient></defs><defs><linearGradient id="grad2_1" x1="0%" y1="0%" x2="56.3%" y2="100%"><stop offset="14.444444444444446%" stop-color="#f4844e" stop-opacity="1"></stop><stop offset="85.55555555555554%" stop-color="#fcaf3c" stop-opacity="1"></stop></linearGradient></defs><defs><linearGradient id="grad2_2" x1="0%" y1="0%" x2="56.3%" y2="100%"><stop offset="14.444444444444446%" stop-color="#f4844e" stop-opacity="1"></stop><stop offset="85.55555555555554%" stop-color="#da6160" stop-opacity="1"></stop></linearGradient></defs><defs><linearGradient id="grad2_3" x1="0%" y1="0%" x2="56.3%" y2="100%"><stop offset="14.444444444444446%" stop-color="#b14a6a" stop-opacity="1"></stop><stop offset="85.55555555555554%" stop-color="#da6160" stop-opacity="1"></stop></linearGradient></defs><defs><linearGradient id="grad2_4" x1="0%" y1="0%" x2="56.3%" y2="100%"><stop offset="14.444444444444446%" stop-color="#b14a6a" stop-opacity="1"></stop><stop offset="85.55555555555554%" stop-color="#803c69" stop-opacity="1"></stop></linearGradient></defs><defs><linearGradient id="grad2_5" x1="0%" y1="0%" x2="56.3%" y2="100%"><stop offset="14.444444444444446%" stop-color="#4d315b" stop-opacity="1"></stop><stop offset="85.55555555555554%" stop-color="#803c69" stop-opacity="1"></stop></linearGradient></defs><defs><linearGradient id="grad2_6" x1="0%" y1="0%" x2="56.3%" y2="100%"><stop offset="14.444444444444446%" stop-color="#4d315b" stop-opacity="1"></stop><stop offset="85.55555555555554%" stop-color="#212341" stop-opacity="1"></stop></linearGradient></defs><defs><linearGradient id="grad2_7" x1="0%" y1="0%" x2="56.3%" y2="100%"><stop offset="14.444444444444446%" stop-color="#001122" stop-opacity="1"></stop><stop offset="85.55555555555554%" stop-color="#212341" stop-opacity="1"></stop></linearGradient></defs><g transform="translate(960, 0)"><path d="M0 459C-40.9 433.8 -81.8 408.5 -129.5 398.5C-177.2 388.5 -231.6 393.6 -269.8 371.3C-308 349 -329.8 299.2 -352.7 256.3C-375.6 213.3 -399.6 177.2 -417.5 135.7C-435.4 94.1 -447.2 47 -459 0L0 0Z" fill="#0e1b32"></path><path d="M0 401.6C-35.8 379.5 -71.6 357.5 -113.3 348.7C-155 339.9 -202.7 344.4 -236.1 324.9C-269.5 305.4 -288.6 261.8 -308.6 224.2C-328.7 186.7 -349.7 155.1 -365.3 118.7C-381 82.3 -391.3 41.2 -401.6 0L0 0Z" fill="#362b4f"></path><path d="M0 344.3C-30.7 325.3 -61.3 306.4 -97.1 298.9C-132.9 291.3 -173.7 295.2 -202.3 278.5C-231 261.8 -247.4 224.4 -264.5 192.2C-281.7 160 -299.7 132.9 -313.1 101.7C-326.6 70.6 -335.4 35.3 -344.2 0L0 0Z" fill="#663763"></path><path d="M0 286.9C-25.6 271.1 -51.1 255.3 -80.9 249.1C-110.7 242.8 -144.8 246 -168.6 232.1C-192.5 218.1 -206.1 187 -220.5 160.2C-234.8 133.3 -249.8 110.8 -260.9 84.8C-272.1 58.8 -279.5 29.4 -286.9 0L0 0Z" fill="#99426b"></path><path d="M0 229.5C-20.4 216.9 -40.9 204.3 -64.7 199.2C-88.6 194.2 -115.8 196.8 -134.9 185.7C-154 174.5 -164.9 149.6 -176.4 128.1C-187.8 106.7 -199.8 88.6 -208.8 67.8C-217.7 47 -223.6 23.5 -229.5 0L0 0Z" fill="#c75466"></path><path d="M0 172.1C-15.3 162.7 -30.7 153.2 -48.6 149.4C-66.4 145.7 -86.9 147.6 -101.2 139.3C-115.5 130.9 -123.7 112.2 -132.3 96.1C-140.9 80 -149.9 66.5 -156.6 50.9C-163.3 35.3 -167.7 17.6 -172.1 0L0 0Z" fill="#e97157"></path><path d="M0 114.8C-10.2 108.4 -20.4 102.1 -32.4 99.6C-44.3 97.1 -57.9 98.4 -67.4 92.8C-77 87.3 -82.5 74.8 -88.2 64.1C-93.9 53.3 -99.9 44.3 -104.4 33.9C-108.9 23.5 -111.8 11.8 -114.7 0L0 0Z" fill="#fa9945"></path><path d="M0 57.4C-5.1 54.2 -10.2 51.1 -16.2 49.8C-22.1 48.6 -29 49.2 -33.7 46.4C-38.5 43.6 -41.2 37.4 -44.1 32C-47 26.7 -50 22.2 -52.2 17C-54.4 11.8 -55.9 5.9 -57.4 0L0 0Z" fill="#fcaf3c"></path></g><g transform="translate(0, 540)"><path d="M0 -459C41.1 -434.8 82.2 -410.6 129.8 -399.4C177.4 -388.3 231.5 -390.2 265.1 -364.9C298.7 -339.6 311.7 -287.1 340.6 -247.5C369.5 -207.8 414.2 -180.9 436.5 -141.8C458.9 -102.7 459 -51.4 459 0L0 0Z" fill="#0e1b32"></path><path d="M0 -401.6C36 -380.5 71.9 -359.3 113.6 -349.5C155.2 -339.7 202.6 -341.4 232 -319.3C261.3 -297.1 272.8 -251.2 298 -216.5C323.3 -181.8 362.4 -158.3 382 -124.1C401.5 -89.9 401.6 -44.9 401.6 0L0 0Z" fill="#362b4f"></path><path d="M0 -344.2C30.8 -326.1 61.6 -308 97.3 -299.6C133 -291.2 173.6 -292.6 198.8 -273.6C224 -254.7 233.8 -215.3 255.4 -185.6C277.1 -155.9 310.6 -135.7 327.4 -106.4C344.2 -77 344.2 -38.5 344.3 0L0 0Z" fill="#663763"></path><path d="M0 -286.9C25.7 -271.8 51.4 -256.6 81.1 -249.7C110.9 -242.7 144.7 -243.8 165.7 -228C186.7 -212.2 194.8 -179.4 212.9 -154.7C230.9 -129.9 258.9 -113.1 272.8 -88.6C286.8 -64.2 286.8 -32.1 286.9 0L0 0Z" fill="#99426b"></path><path d="M0 -229.5C20.5 -217.4 41.1 -205.3 64.9 -199.7C88.7 -194.1 115.8 -195.1 132.5 -182.4C149.3 -169.8 155.9 -143.6 170.3 -123.7C184.7 -103.9 207.1 -90.5 218.3 -70.9C229.5 -51.4 229.5 -25.7 229.5 0L0 0Z" fill="#c75466"></path><path d="M0 -172.1C15.4 -163.1 30.8 -154 48.7 -149.8C66.5 -145.6 86.8 -146.3 99.4 -136.8C112 -127.3 116.9 -107.7 127.7 -92.8C138.6 -77.9 155.3 -67.9 163.7 -53.2C172.1 -38.5 172.1 -19.3 172.1 0L0 0Z" fill="#e97157"></path><path d="M0 -114.7C10.3 -108.7 20.5 -102.7 32.4 -99.9C44.3 -97.1 57.9 -97.5 66.3 -91.2C74.7 -84.9 77.9 -71.8 85.1 -61.9C92.4 -52 103.5 -45.2 109.1 -35.5C114.7 -25.7 114.7 -12.8 114.8 0L0 0Z" fill="#fa9945"></path><path d="M0 -57.4C5.1 -54.4 10.3 -51.3 16.2 -49.9C22.2 -48.5 28.9 -48.8 33.1 -45.6C37.3 -42.4 39 -35.9 42.6 -30.9C46.2 -26 51.8 -22.6 54.6 -17.7C57.4 -12.8 57.4 -6.4 57.4 0L0 0Z" fill="#fcaf3c"></path></g></svg>